<?xml version="1.0" encoding="utf-8"?>
<!-- Generator: Adobe Illustrator 15.0.0, SVG Export Plug-In . SVG Version: 6.00 Build 0)  -->
<!DOCTYPE svg PUBLIC "-//W3C//DTD SVG 1.1//EN" "http://www.w3.org/Graphics/SVG/1.1/DTD/svg11.dtd">
<svg version="1.1" id="Layer_1" xmlns="http://www.w3.org/2000/svg" xmlns:xlink="http://www.w3.org/1999/xlink" x="0px" y="0px"
	 width="96px" height="96px" viewBox="0 0 96 96" enable-background="new 0 0 96 96" xml:space="preserve">
<path fill-opacity="0.4" d="M87.997,49c0,29.59-10.362,39.941-39.997,39.941C18.368,88.941,8.003,78.59,8.003,49
	C8.003,19.408,18.368,9.058,48,9.058C77.635,9.058,87.997,19.408,87.997,49z"/>
<linearGradient id="SVGID_1_" gradientUnits="userSpaceOnUse" x1="106.5195" y1="2818.6758" x2="106.5195" y2="2898.5596" gradientTransform="matrix(1 0 0 1 -58.519 -2810.6172)">
	<stop  offset="0" style="stop-color:#FC9204"/>
	<stop  offset="1" style="stop-color:#EB1E00"/>
</linearGradient>
<path fill="url(#SVGID_1_)" d="M87.997,48c0,29.589-10.362,39.942-39.997,39.942C18.368,87.942,8.003,77.59,8.003,48
	C8.003,18.409,18.368,8.059,48,8.059C77.635,8.059,87.997,18.409,87.997,48z"/>
<linearGradient id="SVGID_2_" gradientUnits="userSpaceOnUse" x1="106.5195" y1="2818.9287" x2="106.5195" y2="2898.0588" gradientTransform="matrix(1 0 0 1 -58.519 -2810.6172)">
	<stop  offset="0" style="stop-color:#FFFFFF"/>
	<stop  offset="1" style="stop-color:#FFFFFF;stop-opacity:0"/>
</linearGradient>
<path fill="url(#SVGID_2_)" fill-opacity="0.25" d="M48,8.059C18.368,8.059,8.003,18.409,8.003,48
	C8.003,77.59,18.368,87.942,48,87.942c29.635,0,39.997-10.353,39.997-39.942C87.997,18.409,77.635,8.059,48,8.059z M48,86.944
	c-29.156,0-38.997-9.828-38.997-38.943C9.003,18.885,18.844,9.058,48,9.058c29.155,0,38.997,9.827,38.997,38.943
	S77.155,86.944,48,86.944z"/>
<g>
	
		<linearGradient id="SVGID_3_" gradientUnits="userSpaceOnUse" x1="101.8477" y1="-2665.7451" x2="128.0626" y2="-2717.6758" gradientTransform="matrix(1 0 0 -1 -66.8789 -2642.5625)">
		<stop  offset="0" style="stop-color:#A6A6A6"/>
		<stop  offset="0.26" style="stop-color:#F7F7F7"/>
		<stop  offset="0.74" style="stop-color:#F7F7F7"/>
		<stop  offset="1" style="stop-color:#878787"/>
	</linearGradient>
	<path fill="url(#SVGID_3_)" d="M32.569,27.305c-0.243,0.49-0.443,1.332-0.443,1.878v39.627c0,0.544,0.201,1.389,0.443,1.874
		l2.037,4.066h26.786l2.037-4.066c0.241-0.488,0.442-1.33,0.442-1.874V29.184c0-0.546-0.201-1.388-0.442-1.877l-2.037-4.066H34.606
		L32.569,27.305z"/>
	<path fill-opacity="0.02" d="M34.606,80.7c-1.513,0-2.874-0.841-3.547-2.19l-2.039-4.067c-0.522-1.047-0.861-2.476-0.861-3.648
		V31.166c0-1.171,0.339-2.604,0.861-3.649l2.037-4.067c0.677-1.351,2.04-2.19,3.55-2.19h26.787c1.513,0,2.871,0.839,3.551,2.189
		l2.037,4.068c0.523,1.047,0.859,2.478,0.859,3.649v39.627c0,1.172-0.34,2.603-0.859,3.649l-2.037,4.064
		c-0.676,1.352-2.037,2.19-3.551,2.19H34.606V80.7z"/>
	<path fill-opacity="0.05" d="M34.606,79.708c-1.133,0-2.154-0.631-2.661-1.643l-2.039-4.067c-0.453-0.908-0.757-2.195-0.757-3.206
		V31.166c0-1.014,0.306-2.301,0.759-3.206l2.035-4.066c0.509-1.016,1.529-1.644,2.662-1.644h26.787c1.136,0,2.154,0.628,2.66,1.642
		l2.036,4.068c0.456,0.906,0.76,2.193,0.76,3.206v39.626c0,1.012-0.307,2.302-0.76,3.206l-2.036,4.063
		c-0.506,1.02-1.524,1.645-2.66,1.645L34.606,79.708L34.606,79.708z"/>
	<path fill-opacity="0.05" d="M34.606,78.716c-0.756,0-1.437-0.418-1.773-1.093l-2.038-4.064c-0.384-0.77-0.652-1.907-0.652-2.766
		V31.166c0-0.861,0.269-1.997,0.652-2.763l2.037-4.067c0.339-0.676,1.019-1.095,1.775-1.095h26.785c0.758,0,1.439,0.418,1.774,1.093
		l2.035,4.068c0.385,0.769,0.654,1.903,0.654,2.765v39.626c0,0.86-0.271,1.996-0.654,2.764l-2.035,4.067
		c-0.34,0.674-1.019,1.093-1.774,1.093L34.606,78.716L34.606,78.716z"/>
	<path fill-opacity="0.1" d="M34.606,77.727c-0.376,0-0.721-0.212-0.888-0.547l-2.037-4.067c-0.313-0.623-0.548-1.617-0.548-2.313
		V31.167c0-0.7,0.236-1.696,0.548-2.321l2.037-4.067c0.167-0.335,0.511-0.548,0.887-0.548h26.785c0.377,0,0.72,0.212,0.891,0.548
		l2.032,4.067c0.315,0.625,0.551,1.622,0.551,2.321v39.626c0,0.698-0.233,1.694-0.551,2.319l-2.032,4.064
		c-0.171,0.338-0.514,0.547-0.891,0.547L34.606,77.727L34.606,77.727z"/>
	<path fill-opacity="0.15" d="M32.569,29.286c-0.243,0.489-0.443,1.333-0.443,1.877v39.628c0,0.543,0.201,1.391,0.443,1.876
		l2.037,4.064h26.786l2.037-4.064c0.241-0.489,0.442-1.333,0.442-1.876V31.166c0-0.546-0.201-1.389-0.442-1.878l-2.037-4.066H34.606
		L32.569,29.286z"/>
	
		<linearGradient id="SVGID_4_" gradientUnits="userSpaceOnUse" x1="101.8477" y1="-2665.7451" x2="128.0626" y2="-2717.6758" gradientTransform="matrix(1 0 0 -1 -66.8789 -2642.5625)">
		<stop  offset="0" style="stop-color:#CFCFCF"/>
		<stop  offset="0.26" style="stop-color:#F7F7F7"/>
		<stop  offset="0.74" style="stop-color:#F7F7F7"/>
		<stop  offset="1" style="stop-color:#878787"/>
	</linearGradient>
	<path fill="url(#SVGID_4_)" d="M32.569,27.305c-0.243,0.49-0.443,1.332-0.443,1.878v39.627c0,0.544,0.201,1.389,0.443,1.874
		l2.037,4.066h26.786l2.037-4.066c0.241-0.488,0.442-1.33,0.442-1.874V29.184c0-0.546-0.201-1.388-0.442-1.877l-2.037-4.066H34.606
		L32.569,27.305z"/>
	
		<linearGradient id="SVGID_5_" gradientUnits="userSpaceOnUse" x1="114.8779" y1="-2711.375" x2="114.8779" y2="-2714.3457" gradientTransform="matrix(1 0 0 -1 -66.8789 -2642.5625)">
		<stop  offset="0" style="stop-color:#808184"/>
		<stop  offset="1" style="stop-color:#FFFFFF"/>
	</linearGradient>
	<path fill="url(#SVGID_5_)" d="M44.031,71.783c-0.82,0-1.488-0.669-1.488-1.486s0.667-1.484,1.488-1.484h7.936
		c0.821,0,1.489,0.669,1.489,1.484c0,0.819-0.668,1.486-1.489,1.486H44.031z"/>
	
		<linearGradient id="SVGID_6_" gradientUnits="userSpaceOnUse" x1="114.877" y1="-2713.8506" x2="114.877" y2="-2711.8682" gradientTransform="matrix(1 0 0 -1 -66.8789 -2642.5625)">
		<stop  offset="0" style="stop-color:#323233"/>
		<stop  offset="1" style="stop-color:#5A5B5C"/>
	</linearGradient>
	<path fill="url(#SVGID_6_)" d="M52.959,70.297c0,0.543-0.445,0.991-0.992,0.991h-7.936c-0.544,0-0.993-0.448-0.993-0.991l0,0
		c0-0.544,0.447-0.991,0.993-0.991h7.936C52.514,69.306,52.959,69.753,52.959,70.297L52.959,70.297z"/>
	
		<linearGradient id="SVGID_7_" gradientUnits="userSpaceOnUse" x1="114.877" y1="-2713.8506" x2="114.877" y2="-2711.8682" gradientTransform="matrix(1 0 0 -1 -66.8789 -2642.5625)">
		<stop  offset="0" style="stop-color:#FFFFFF;stop-opacity:0"/>
		<stop  offset="1" style="stop-color:#FFFFFF"/>
	</linearGradient>
	<path fill="url(#SVGID_7_)" fill-opacity="0.25" d="M51.967,69.306h-7.936c-0.544,0-0.993,0.447-0.993,0.991
		c0,0.543,0.447,0.991,0.993,0.991h7.936c0.547,0,0.992-0.448,0.992-0.991C52.959,69.753,52.514,69.306,51.967,69.306z
		 M51.967,70.792h-7.936c-0.273,0-0.496-0.223-0.496-0.495c0-0.274,0.222-0.496,0.496-0.496h7.936c0.274,0,0.496,0.222,0.496,0.496
		C52.463,70.569,52.241,70.792,51.967,70.792z"/>
	
		<linearGradient id="SVGID_8_" gradientUnits="userSpaceOnUse" x1="114.8779" y1="-2717.2197" x2="114.8778" y2="-2665.6045" gradientTransform="matrix(1 0 0 -1 -66.8789 -2642.5625)">
		<stop  offset="0" style="stop-color:#FFFFFF;stop-opacity:0"/>
		<stop  offset="1" style="stop-color:#FFFFFF"/>
	</linearGradient>
	<path fill="url(#SVGID_8_)" fill-opacity="0.25" d="M63.43,27.305l-2.037-4.065H34.606l-2.037,4.065
		c-0.243,0.49-0.443,1.332-0.443,1.878v39.627c0,0.544,0.201,1.389,0.443,1.874l2.037,4.066h26.786l2.037-4.066
		c0.241-0.488,0.442-1.33,0.442-1.874V29.184C63.872,28.638,63.673,27.795,63.43,27.305z M62.881,68.813
		c0,0.389-0.165,1.085-0.341,1.436l-1.764,3.517H35.218l-1.762-3.517c-0.174-0.348-0.341-1.046-0.341-1.436V29.184
		c0-0.39,0.166-1.087,0.341-1.436l1.762-3.519h25.559l1.764,3.519c0.174,0.348,0.341,1.044,0.341,1.436V68.813z"/>
	
		<linearGradient id="SVGID_9_" gradientUnits="userSpaceOnUse" x1="114.8779" y1="-2711.9497" x2="114.8779" y2="-2717.3987" gradientTransform="matrix(1 0 0 -1 -66.8789 -2642.5625)">
		<stop  offset="0" style="stop-color:#000000;stop-opacity:0.06"/>
		<stop  offset="1" style="stop-color:#000000;stop-opacity:0.2"/>
	</linearGradient>
	<path fill="url(#SVGID_9_)" d="M61.393,73.765H34.606L32.569,69.7c-0.243-0.488-0.443-1.332-0.443-1.876v0.993
		c0,0.546,0.201,1.391,0.443,1.875l2.037,4.064h26.786l2.037-4.064c0.241-0.492,0.442-1.329,0.442-1.875v-0.994
		c0,0.543-0.201,1.393-0.442,1.877L61.393,73.765z"/>
	
		<linearGradient id="SVGID_10_" gradientUnits="userSpaceOnUse" x1="114.8779" y1="-2672.7349" x2="114.8779" y2="-2665.8022" gradientTransform="matrix(1 0 0 -1 -66.8789 -2642.5625)">
		<stop  offset="0" style="stop-color:#FDFDFE;stop-opacity:0.06"/>
		<stop  offset="1" style="stop-color:#FDFDFE;stop-opacity:0.8"/>
	</linearGradient>
	<path fill="url(#SVGID_10_)" d="M63.43,27.305l-2.037-4.065H34.606l-2.037,4.065c-0.243,0.49-0.443,1.332-0.443,1.878v0.989
		c0-0.544,0.201-1.388,0.443-1.876l2.037-4.066h26.786l2.037,4.066c0.241,0.488,0.442,1.332,0.442,1.876v-0.989
		C63.872,28.638,63.673,27.795,63.43,27.305z"/>
	
		<linearGradient id="SVGID_11_" gradientUnits="userSpaceOnUse" x1="114.8779" y1="-2654.6357" x2="114.8779" y2="-2694.3464" gradientTransform="matrix(1 0 0 -1 -66.8789 -2642.5625)">
		<stop  offset="0" style="stop-color:#656667"/>
		<stop  offset="1" style="stop-color:#000000"/>
	</linearGradient>
	<path fill="url(#SVGID_11_)" d="M61.888,63.858c0,1.634-1.338,2.97-2.976,2.97H37.086c-1.637,0-2.976-1.336-2.976-2.97V30.173
		c0-1.634,1.339-2.972,2.976-2.972h21.826c1.638,0,2.975,1.337,2.975,2.972L61.888,63.858L61.888,63.858z"/>
	
		<linearGradient id="SVGID_12_" gradientUnits="userSpaceOnUse" x1="114.877" y1="-2628.6206" x2="114.8769" y2="-2716.3586" gradientTransform="matrix(1 0 0 -1 -66.8789 -2642.5625)">
		<stop  offset="0" style="stop-color:#656667"/>
		<stop  offset="1" style="stop-color:#000000"/>
	</linearGradient>
	<rect x="36.093" y="29.184" fill="url(#SVGID_12_)" width="23.81" height="35.664"/>
	
		<linearGradient id="SVGID_13_" gradientUnits="userSpaceOnUse" x1="114.8779" y1="-2690.5688" x2="114.8779" y2="-2670.7544" gradientTransform="matrix(1 0 0 -1 -66.8789 -2642.5625)">
		<stop  offset="0" style="stop-color:#FDFDFE;stop-opacity:0.06"/>
		<stop  offset="0.1" style="stop-color:#FDFDFE;stop-opacity:0.06"/>
		<stop  offset="1" style="stop-color:#FDFDFE;stop-opacity:0.25"/>
	</linearGradient>
	<path fill="url(#SVGID_13_)" d="M60.896,48.006V30.173c0-1.092-0.893-1.981-1.983-1.981H37.086c-1.093,0-1.984,0.889-1.984,1.981
		v17.833L60.896,48.006L60.896,48.006z"/>
	<path fill-opacity="0.05" d="M51.368,62.447c-2.403,0-5.014-1.317-7.351-3.712c-0.032-0.031-0.062-0.067-0.091-0.103
		c-0.393,0.066-0.789,0.104-1.18,0.104c-3.761,0-6.936-3.199-6.936-6.982c0-1.46,0.458-2.876,1.303-4.054
		c-0.315-0.214-0.542-0.547-0.613-0.933c-1.234-6.579,1.146-12.995,5.417-14.604c0.699-0.266,1.444-0.399,2.216-0.399
		c2.157,0,4.435,1.029,6.59,2.976c0.303,0.273,0.468,0.656,0.475,1.05c0.757-0.128,1.646-0.19,2.692-0.19
		c2.75,0,4.456,0.426,5.374,1.345c0.92,0.918,1.348,2.623,1.348,5.368s-0.427,4.45-1.348,5.369c-0.259,0.258-0.579,0.479-0.97,0.66
		c0.543,0.179,0.953,0.673,0.993,1.27c0.415,5.798-1.984,11.031-5.705,12.441C52.883,62.314,52.141,62.447,51.368,62.447
		L51.368,62.447z M47.632,56.782c1.007,0.929,1.996,1.471,2.708,1.471c0.146,0,0.284-0.021,0.407-0.068
		c1.197-0.453,1.84-3.454,0.675-8.123c-0.101-0.403-0.024-0.82,0.205-1.16c-1.468-0.188-2.479-0.586-3.109-1.22
		c-0.009-0.006-0.013-0.012-0.02-0.017c0.817,1.144,1.294,2.557,1.294,4.094C49.793,53.711,49.029,55.479,47.632,56.782
		L47.632,56.782z M44.074,44.885c1.611,0.284,3.008,1.1,4.019,2.263c-0.626-0.988-0.923-2.552-0.923-4.833
		c0-2.467,0.346-4.095,1.083-5.066h-0.069c-0.32,0-0.635-0.108-0.888-0.306c-0.807-0.633-1.569-0.98-2.146-0.98
		c-0.144,0-0.278,0.021-0.399,0.069c-1.218,0.458-1.802,3.625-0.673,8.129C44.142,44.402,44.138,44.651,44.074,44.885L44.074,44.885
		z"/>
	<path fill-opacity="0.1" d="M51.368,61.971c-2.272,0-4.761-1.271-7.008-3.568c-0.087-0.092-0.153-0.193-0.2-0.306
		c-0.471,0.104-0.942,0.165-1.415,0.165c-3.5,0-6.457-2.981-6.457-6.507c0-1.644,0.613-3.144,1.624-4.291
		c-0.098,0-0.196-0.015-0.289-0.045c-0.338-0.107-0.589-0.389-0.655-0.738c-1.191-6.357,1.055-12.538,5.114-14.068
		c0.646-0.245,1.335-0.369,2.047-0.369c2.034,0,4.203,0.987,6.271,2.853c0.29,0.263,0.393,0.689,0.252,1.055
		c-0.043,0.107-0.101,0.201-0.17,0.283c0.868-0.238,1.998-0.356,3.406-0.356c2.576,0,4.224,0.395,5.033,1.205
		c0.813,0.81,1.204,2.455,1.204,5.029c0,2.573-0.393,4.218-1.204,5.029c-0.812,0.81-2.457,1.203-5.033,1.203
		c-2.578,0-4.227-0.394-5.035-1.204c-0.813-0.809-1.207-2.454-1.207-5.027s0.395-4.219,1.207-5.029
		c0.195-0.197,0.441-0.369,0.737-0.516h-1.41c-0.214,0-0.424-0.073-0.593-0.205c-0.903-0.708-1.748-1.082-2.44-1.082
		c-0.204,0-0.394,0.034-0.569,0.1c-1.667,0.629-2.073,4.286-0.968,8.695c0.073,0.283,0.011,0.58-0.167,0.813
		c-0.051,0.068-0.111,0.129-0.179,0.18c3.425,0.229,6.042,2.997,6.042,6.484c0,1.99-0.862,3.782-2.389,5.01
		c1.236,1.255,2.474,1.97,3.418,1.97c0.203,0,0.396-0.034,0.573-0.101c1.69-0.641,2.091-4.21,0.972-8.689
		c-0.071-0.289-0.009-0.589,0.174-0.821c0.182-0.235,0.46-0.368,0.757-0.368h5.034c0.502,0,0.924,0.389,0.958,0.891
		c0.397,5.594-1.869,10.624-5.395,11.961C52.769,61.846,52.079,61.971,51.368,61.971L51.368,61.971z"/>
	<path fill-opacity="0.1" d="M51.368,61.491c-2.142,0-4.51-1.217-6.664-3.426c-0.107-0.109-0.157-0.268-0.128-0.418
		c0.012-0.067,0.038-0.129,0.075-0.185c-0.622,0.208-1.27,0.315-1.905,0.315c-3.24,0-5.976-2.76-5.976-6.024
		c0-3.322,2.707-6.023,6.034-6.023c3.379,0,6.027,2.646,6.027,6.023c0,2.235-1.141,3.964-2.687,4.979
		c0.081,0.021,0.156,0.066,0.217,0.132c1.418,1.515,2.83,2.347,3.98,2.347c0.263,0,0.513-0.047,0.746-0.135
		c1.954-0.736,2.462-4.458,1.266-9.253c-0.035-0.145-0.004-0.295,0.088-0.411s0.232-0.184,0.38-0.184h5.034
		c0.252,0,0.459,0.192,0.479,0.442c0.384,5.387-1.757,10.213-5.088,11.477C52.652,61.376,52.021,61.491,51.368,61.491L51.368,61.491
		z M53.892,48.066c-2.409,0-3.99-0.357-4.693-1.063c-0.708-0.706-1.066-2.283-1.066-4.688c0-2.406,0.358-3.983,1.066-4.689
		c0.704-0.706,2.284-1.064,4.693-1.064c2.408,0,3.988,0.358,4.694,1.064c0.707,0.705,1.066,2.282,1.066,4.689
		c0,2.405-0.359,3.983-1.066,4.688C57.88,47.709,56.3,48.066,53.892,48.066L53.892,48.066z M37.916,46.987
		c-0.048,0-0.098-0.008-0.145-0.023c-0.169-0.052-0.294-0.195-0.328-0.37c-1.15-6.135,0.963-12.08,4.813-13.531
		c0.592-0.223,1.224-0.337,1.876-0.337c1.915,0,3.971,0.945,5.947,2.729c0.146,0.132,0.199,0.344,0.128,0.527
		c-0.071,0.185-0.25,0.308-0.451,0.308h-1.573c-0.108,0-0.21-0.037-0.297-0.103c-0.988-0.775-1.935-1.185-2.735-1.185
		c-0.261,0-0.509,0.042-0.738,0.13c-1.93,0.728-2.449,4.537-1.265,9.26c0.036,0.142,0.005,0.292-0.083,0.407
		c-0.088,0.116-0.226,0.187-0.371,0.188c-1.675,0.041-3.252,0.702-4.444,1.861C38.159,46.938,38.039,46.987,37.916,46.987
		L37.916,46.987z"/>
	<path fill-opacity="0.3" d="M42.684,44.51c-1.222-4.875-0.742-8.956,1.56-9.825c1.147-0.431,2.536,0.024,3.941,1.126h1.574
		c-2.422-2.187-5.09-3.147-7.333-2.299c-3.511,1.322-5.646,6.941-4.511,12.995C39.149,45.306,40.826,44.555,42.684,44.51z
		 M52.818,49.71c1.22,4.874,0.736,8.949-1.563,9.818c-1.503,0.566-3.173-0.128-5.001-2.079c-0.307,0.204-0.65,0.466-0.984,0.625
		c2.595,2.655,5.349,3.557,7.803,2.63c3.114-1.181,5.153-5.743,4.778-10.994H52.818L52.818,49.71z M48.352,51.757
		c0-3.284-2.629-5.545-5.548-5.545c-2.918,0-5.553,2.399-5.553,5.545c0,3.142,2.667,5.545,5.497,5.545
		C45.58,57.302,48.352,55.039,48.352,51.757z M58.247,37.964c-0.604-0.604-2.108-0.924-4.355-0.924
		c-2.244,0-3.749,0.318-4.354,0.924c-0.604,0.603-0.927,2.109-0.927,4.351c0,2.241,0.318,3.746,0.927,4.349
		c0.604,0.604,2.109,0.924,4.354,0.924c2.247,0,3.752-0.319,4.355-0.923c0.604-0.604,0.924-2.108,0.924-4.35
		C59.171,40.072,58.851,38.567,58.247,37.964z"/>
	
		<linearGradient id="SVGID_14_" gradientUnits="userSpaceOnUse" x1="90.0098" y1="2174.375" x2="90.0098" y2="2146.5723" gradientTransform="matrix(1 0 0 1 -41.7993 -2113.7266)">
		<stop  offset="0" style="stop-color:#CCCAC6"/>
		<stop  offset="1" style="stop-color:#FFFFFF"/>
	</linearGradient>
	<path fill="url(#SVGID_14_)" d="M42.634,43.825c-1.155-4.784-0.66-8.763,1.608-9.619c1.146-0.432,2.536,0.024,3.941,1.126h1.573
		c-2.42-2.187-5.088-3.146-7.331-2.298c-3.445,1.298-5.558,6.737-4.562,12.662C39.143,44.565,40.808,43.866,42.634,43.825z
		 M58.247,37.485c-0.604-0.603-2.108-0.923-4.355-0.923c-2.244,0-3.749,0.319-4.354,0.923c-0.604,0.604-0.927,2.108-0.927,4.35
		c0,2.241,0.318,3.745,0.927,4.35c0.604,0.603,2.109,0.923,4.354,0.923c2.247,0,3.752-0.319,4.355-0.923
		c0.604-0.604,0.924-2.109,0.924-4.351C59.171,39.592,58.851,38.089,58.247,37.485z M52.818,49.231
		c1.22,4.876,0.736,8.95-1.563,9.818c-1.274,0.481-2.848-0.132-4.413-1.521c-0.304,0.196-0.622,0.368-0.955,0.521
		c2.382,2.098,4.99,3.005,7.185,2.178c3.114-1.182,5.151-5.746,4.776-10.995H52.818L52.818,49.231z M48.352,51.277
		c0-3.283-2.629-5.544-5.548-5.544c-2.918,0-5.553,2.4-5.553,5.544c0,3.145,2.667,5.545,5.497,5.545
		C45.58,56.822,48.352,54.559,48.352,51.277z"/>
	<path fill-opacity="0.1" d="M59.162,41.354c-0.043,1.974-0.354,3.313-0.913,3.872c-0.605,0.604-2.11,0.922-4.356,0.922
		c-2.245,0-3.75-0.319-4.353-0.923c-0.563-0.559-0.873-1.897-0.914-3.871c-0.006,0.16-0.013,0.313-0.013,0.479
		c0,2.241,0.317,3.746,0.927,4.351c0.604,0.603,2.107,0.923,4.353,0.923c2.246,0,3.753-0.319,4.356-0.923
		c0.603-0.604,0.924-2.108,0.924-4.35C59.171,41.668,59.166,41.514,59.162,41.354z M42.634,43.825
		c-0.077-0.319-0.146-0.633-0.208-0.945c-1.747,0.087-3.333,0.77-4.563,1.855c-0.143-0.843-0.213-1.673-0.234-2.484
		c-0.033,1.11,0.037,2.265,0.234,3.442C39.143,44.565,40.808,43.866,42.634,43.825z M44.243,34.206
		c1.147-0.432,2.536,0.024,3.941,1.126h1.573c-0.391-0.354-0.789-0.672-1.19-0.959h-0.38c-1.404-1.102-2.796-1.557-3.941-1.126
		c-1.578,0.596-2.296,2.704-2.2,5.542C42.127,36.44,42.849,34.733,44.243,34.206z M48.352,51.277c0-0.168-0.013-0.33-0.025-0.493
		c-0.249,3.028-2.886,5.078-5.58,5.078c-2.684,0-5.216-2.163-5.471-5.066c-0.015,0.16-0.024,0.316-0.024,0.481
		c0,3.145,2.666,5.545,5.495,5.545C45.58,56.822,48.352,54.559,48.352,51.277z M53.074,59.268c-1.979,0.747-4.29,0.08-6.473-1.595
		c-0.23,0.133-0.468,0.265-0.711,0.376c2.382,2.1,4.991,3.008,7.185,2.178c2.964-1.123,4.946-5.313,4.813-10.239
		C57.756,54.489,55.843,58.218,53.074,59.268z M53.036,49.231h-0.218c0.379,1.513,0.591,2.947,0.638,4.236
		C53.498,52.212,53.359,50.774,53.036,49.231z"/>
	<path fill="#FFFFFF" d="M42.529,43.832c0.037-0.001,0.07-0.007,0.105-0.007c-0.387-1.604-0.585-3.117-0.597-4.455
		C42.001,40.691,42.17,42.212,42.529,43.832z M48.338,51.512c0.002-0.079,0.013-0.154,0.013-0.232c0-3.283-2.629-5.543-5.549-5.543
		c-2.918,0-5.553,2.399-5.553,5.543c0,0.082,0.009,0.156,0.013,0.236c0.13-3.021,2.698-5.303,5.54-5.303
		C45.648,46.212,48.209,48.365,48.338,51.512z M42.425,33.513c2.07-0.785,4.503-0.022,6.773,1.819h0.561
		c-2.422-2.187-5.09-3.146-7.333-2.298c-2.877,1.084-4.817,5.06-4.801,9.791C37.735,38.306,39.646,34.56,42.425,33.513z
		 M58.247,37.485c-0.604-0.603-2.108-0.923-4.355-0.923c-2.244,0-3.749,0.319-4.354,0.923c-0.604,0.604-0.927,2.108-0.927,4.35
		c0,0.082,0.007,0.158,0.007,0.24c0.021-2.106,0.338-3.529,0.92-4.111c0.604-0.604,2.109-0.924,4.354-0.924
		c2.247,0,3.752,0.318,4.355,0.924c0.582,0.581,0.896,2.004,0.921,4.111c0-0.081,0.003-0.157,0.003-0.24
		C59.171,39.594,58.851,38.089,58.247,37.485z M52.818,49.231c0.041,0.162,0.073,0.315,0.108,0.477h4.926
		c0.02,0.292,0.029,0.579,0.035,0.864c0.004-0.442-0.006-0.89-0.035-1.343h-5.034V49.231z M51.256,59.05
		c-1.278,0.483-2.848-0.131-4.413-1.521c-0.304,0.198-0.621,0.368-0.955,0.521c0.118,0.104,0.237,0.204,0.355,0.3
		c0.205-0.104,0.405-0.219,0.599-0.341c1.565,1.389,3.135,2.005,4.413,1.521c1.513-0.571,2.234-2.536,2.205-5.202
		C53.402,56.748,52.679,58.512,51.256,59.05z"/>
</g>
</svg>
